<svg xmlns="http://www.w3.org/2000/svg" width="245.142" height="67.3" viewBox="0 0 245.142 67.3">
  <g id="logo" transform="translate(-138 -60)">
    <g id="Group_22157" data-name="Group 22157" transform="translate(166.239 60.181)">
      <path id="Path_25113" data-name="Path 25113" d="M244.4,77.558l-31.745,2.816V70.008L244.4,71.286Z" transform="translate(-212.657 -53.699)" fill="#fff" style="isolation: isolate"/>
      <path id="Path_25114" data-name="Path 25114" d="M244.4,90.845l-31.745,13.861V94.34L244.4,84.574Z" transform="translate(-212.657 -51.408)" fill="#fff" style="isolation: isolate"/>
      <path id="Path_25115" data-name="Path 25115" d="M227.315,117.61l-6.934,4.786V55.915l6.934,1.841Z" transform="translate(-211.442 -55.915)" fill="#fff" style="isolation: isolate"/>
      <path id="Path_25116" data-name="Path 25116" d="M236.457,110.432l-5.8,4.007V58.782l5.8,1.541Z" transform="translate(-209.827 -55.464)" fill="#fff" style="isolation: isolate"/>
    </g>
    <g id="Group_22158" data-name="Group 22158" transform="translate(138 60)">
      <path id="Path_25117" data-name="Path 25117" d="M197.929,108.475l-5.255-2.111V67.682l5.255-1.456V60.864l-9.673,2.985v45.512l9.673,4.329Z" transform="translate(-188.255 -54.956)" fill="#fff"/>
      <path id="Path_25118" data-name="Path 25118" d="M202.944,59.637v5.73l7.773-2.121v50.678l-7.773-2.442v5.951l14,5.624v-67.3Z" transform="translate(-185.945 -55.759)" fill="#fff"/>
    </g>
    <path id="Path_55555" data-name="Path 55555" d="M15.47,0,5.712-10.812V0H2.618V-23.7H5.712v10.982L15.5-23.7h3.91L8.67-11.832,19.516,0ZM31.11.306a9.539,9.539,0,0,1-4.743-1.19,8.472,8.472,0,0,1-3.332-3.383A10.372,10.372,0,0,1,21.828-9.35,10.073,10.073,0,0,1,23.069-14.4a8.551,8.551,0,0,1,3.383-3.366,9.814,9.814,0,0,1,4.794-1.173,9.814,9.814,0,0,1,4.794,1.173,8.581,8.581,0,0,1,3.383,3.349A10.049,10.049,0,0,1,40.664-9.35a9.929,9.929,0,0,1-1.275,5.083A8.837,8.837,0,0,1,35.938-.884,9.9,9.9,0,0,1,31.11.306Zm0-2.72A6.533,6.533,0,0,0,34.238-3.2,5.95,5.95,0,0,0,36.6-5.542a7.514,7.514,0,0,0,.9-3.808,7.631,7.631,0,0,0-.884-3.808,5.789,5.789,0,0,0-2.312-2.329,6.45,6.45,0,0,0-3.094-.765,6.421,6.421,0,0,0-3.111.765,5.609,5.609,0,0,0-2.261,2.329,7.879,7.879,0,0,0-.85,3.808,8.091,8.091,0,0,0,.833,3.842A5.537,5.537,0,0,0,28.05-3.179,6.256,6.256,0,0,0,31.11-2.414Zm12.478-6.97A10.466,10.466,0,0,1,44.744-14.4a8.387,8.387,0,0,1,3.179-3.349,8.784,8.784,0,0,1,4.539-1.19,8.427,8.427,0,0,1,4.046,1A7.238,7.238,0,0,1,59.364-15.3v-9.86h3.128V0H59.364V-3.5a7.241,7.241,0,0,1-2.72,2.737A8.1,8.1,0,0,1,52.428.306a8.533,8.533,0,0,1-4.5-1.224,8.545,8.545,0,0,1-3.179-3.434A10.7,10.7,0,0,1,43.588-9.384Zm15.776.034a7.575,7.575,0,0,0-.85-3.672,6,6,0,0,0-2.295-2.4,6.252,6.252,0,0,0-3.179-.833,6.26,6.26,0,0,0-3.162.816,5.92,5.92,0,0,0-2.278,2.38,7.575,7.575,0,0,0-.85,3.672,7.75,7.75,0,0,0,.85,3.723,6.013,6.013,0,0,0,2.278,2.414,6.161,6.161,0,0,0,3.162.833,6.252,6.252,0,0,0,3.179-.833,5.976,5.976,0,0,0,2.295-2.414A7.675,7.675,0,0,0,59.364-9.35Zm25.364-.68a18.208,18.208,0,0,1-.1,1.87H69.734a6.024,6.024,0,0,0,1.887,4.3,6,6,0,0,0,4.165,1.547,5.722,5.722,0,0,0,3.349-.935,4.95,4.95,0,0,0,1.887-2.5h3.332a8.01,8.01,0,0,1-2.992,4.369A9.031,9.031,0,0,1,75.786.306a9.418,9.418,0,0,1-4.743-1.19,8.423,8.423,0,0,1-3.281-3.383,10.492,10.492,0,0,1-1.19-5.083,10.642,10.642,0,0,1,1.156-5.066,8.115,8.115,0,0,1,3.247-3.349,9.665,9.665,0,0,1,4.811-1.173,9.351,9.351,0,0,1,4.692,1.156A8,8,0,0,1,83.623-14.6,9.382,9.382,0,0,1,84.728-10.03Zm-3.2-.646a5.707,5.707,0,0,0-.782-3.043,5.085,5.085,0,0,0-2.125-1.938,6.628,6.628,0,0,0-2.975-.663,5.734,5.734,0,0,0-4,1.5,6.1,6.1,0,0,0-1.887,4.148Zm18.428-8.5a6.75,6.75,0,0,1,5.236,2.159,8.467,8.467,0,0,1,1.972,5.933V0h-5.78V-10.3a4.164,4.164,0,0,0-.986-2.958,3.457,3.457,0,0,0-2.652-1.054A3.457,3.457,0,0,0,95.1-13.26a4.164,4.164,0,0,0-.986,2.958V0H88.3V-25.16h5.814v8.738a6.214,6.214,0,0,1,2.414-2.006A7.715,7.715,0,0,1,99.96-19.176Zm10.1,9.656a11.339,11.339,0,0,1,1.1-5.134,8.242,8.242,0,0,1,3.009-3.4,7.856,7.856,0,0,1,4.25-1.19,7.3,7.3,0,0,1,3.519.816,6.011,6.011,0,0,1,2.329,2.142v-2.686h5.814V0H124.27V-2.686a6.278,6.278,0,0,1-2.363,2.142,7.3,7.3,0,0,1-3.519.816,7.714,7.714,0,0,1-4.216-1.207,8.341,8.341,0,0,1-3.009-3.434A11.446,11.446,0,0,1,110.058-9.52Zm14.212.034a4.754,4.754,0,0,0-1.207-3.434,3.922,3.922,0,0,0-2.941-1.258,3.947,3.947,0,0,0-2.941,1.241,4.693,4.693,0,0,0-1.207,3.417,4.815,4.815,0,0,0,1.207,3.451,3.9,3.9,0,0,0,2.941,1.275,3.922,3.922,0,0,0,2.941-1.258A4.754,4.754,0,0,0,124.27-9.486ZM142.018.272a10.9,10.9,0,0,1-4.42-.85,7.549,7.549,0,0,1-3.06-2.329,6.126,6.126,0,0,1-1.258-3.315h5.746a2.209,2.209,0,0,0,.918,1.6,3.248,3.248,0,0,0,2.006.612,2.863,2.863,0,0,0,1.683-.425,1.3,1.3,0,0,0,.6-1.105,1.275,1.275,0,0,0-.85-1.207,17.172,17.172,0,0,0-2.754-.867,25.856,25.856,0,0,1-3.4-1,5.874,5.874,0,0,1-2.346-1.666,4.54,4.54,0,0,1-.986-3.077,5.225,5.225,0,0,1,.9-2.975,6.066,6.066,0,0,1,2.652-2.125,10.155,10.155,0,0,1,4.165-.782,8.349,8.349,0,0,1,5.627,1.768,6.879,6.879,0,0,1,2.363,4.692h-5.372a2.315,2.315,0,0,0-.867-1.564,3.007,3.007,0,0,0-1.921-.578,2.656,2.656,0,0,0-1.564.391,1.248,1.248,0,0,0-.544,1.071,1.307,1.307,0,0,0,.867,1.224,13.886,13.886,0,0,0,2.7.816,29.572,29.572,0,0,1,3.434,1.071,5.923,5.923,0,0,1,2.329,1.7A4.81,4.81,0,0,1,149.7-5.508a4.992,4.992,0,0,1-.935,2.975,6.184,6.184,0,0,1-2.686,2.057A10.272,10.272,0,0,1,142.018.272Zm22.916-19.448a6.75,6.75,0,0,1,5.236,2.159,8.467,8.467,0,0,1,1.972,5.933V0h-5.78V-10.3a4.164,4.164,0,0,0-.986-2.958,3.457,3.457,0,0,0-2.652-1.054,3.457,3.457,0,0,0-2.652,1.054,4.164,4.164,0,0,0-.986,2.958V0h-5.814V-25.16h5.814v8.738a6.214,6.214,0,0,1,2.414-2.006A7.715,7.715,0,0,1,164.934-19.176Z" transform="translate(211 106)" fill="#fff"/>
  </g>
</svg>
